<svg xmlns="http://www.w3.org/2000/svg" xmlns:xlink="http://www.w3.org/1999/xlink" viewBox="0,0,256,256" width="24px" height="24px" fill-rule="nonzero"><g fill="#ffffff" fill-rule="nonzero" stroke="none" stroke-width="1" stroke-linecap="butt" stroke-linejoin="miter" stroke-miterlimit="10" stroke-dasharray="" stroke-dashoffset="0" font-family="none" font-weight="none" font-size="none" text-anchor="none" style="mix-blend-mode: normal"><g transform="scale(10.66667,10.66667)"><path d="M5.769,3.618c2.522,1.894 5.235,5.734 6.231,7.794c0.996,-2.06 3.709,-5.9 6.231,-7.793c1.82,-1.367 4.769,-2.424 4.769,0.94c0,0.672 -0.385,5.644 -0.611,6.451c-0.785,2.806 -3.647,3.522 -6.192,3.089c4.449,0.757 5.581,3.265 3.137,5.774c-4.643,4.764 -6.672,-1.195 -7.193,-2.722c-0.095,-0.28 -0.14,-0.411 -0.14,-0.3c-0.001,-0.112 -0.045,0.019 -0.14,0.3c-0.521,1.527 -2.55,7.486 -7.193,2.722c-2.445,-2.509 -1.313,-5.017 3.137,-5.774c-2.546,0.433 -5.407,-0.282 -6.192,-3.089c-0.228,-0.807 -0.613,-5.779 -0.613,-6.451c0,-3.364 2.949,-2.307 4.769,-0.941z"></path></g></g></svg>